<svg width="24" height="25" viewBox="0 0 24 25" fill="none" xmlns="http://www.w3.org/2000/svg">
<path d="M18 2.46393V4.46393M6 2.46393V4.46393" stroke="#737373" stroke-width="1.5" stroke-linecap="round" stroke-linejoin="round"/>
<path d="M11.9955 13.4639H12.0045M11.9955 17.4639H12.0045M15.991 13.4639H16M8 13.4639H8.00897M8 17.4639H8.00897" stroke="#737373" stroke-width="2" stroke-linecap="round" stroke-linejoin="round"/>
<path d="M3.5 8.46393H20.5" stroke="#737373" stroke-width="1.5" stroke-linecap="round" stroke-linejoin="round"/>
<path d="M2.5 12.7071C2.5 8.34987 2.5 6.17121 3.75212 4.81757C5.00424 3.46393 7.01949 3.46393 11.05 3.46393H12.95C16.9805 3.46393 18.9958 3.46393 20.2479 4.81757C21.5 6.17121 21.5 8.34987 21.5 12.7071V13.2207C21.5 17.578 21.5 19.7566 20.2479 21.1103C18.9958 22.4639 16.9805 22.4639 12.95 22.4639H11.05C7.01949 22.4639 5.00424 22.4639 3.75212 21.1103C2.5 19.7566 2.5 17.578 2.5 13.2207V12.7071Z" stroke="#737373" stroke-width="1.5" stroke-linecap="round" stroke-linejoin="round"/>
<path d="M3 8.46393H21" stroke="#737373" stroke-width="1.5" stroke-linecap="round" stroke-linejoin="round"/>
</svg>
