<svg width="168" height="45" viewBox="0 0 168 45" fill="none" xmlns="http://www.w3.org/2000/svg">
<rect x="0.498047" y="6.43372" width="32" height="32" rx="16" transform="rotate(0.019056 0.498047 6.43372)" fill="#ABEF5F"/>
<path d="M21.4944 17.4407L10.4907 28.437" stroke="#1C1C1C" stroke-width="1.5" stroke-linecap="round"/>
<path d="M15.4946 16.5703C15.4946 16.5703 21.1283 16.0972 21.983 16.9524C22.8376 17.8076 22.3608 23.441 22.3608 23.441" stroke="#1C1C1C" stroke-width="1.5" stroke-linecap="round" stroke-linejoin="round"/>
<path d="M42.7414 34.4187L42.7491 11.3787L52.477 11.3819C52.7011 11.382 52.9997 11.3928 53.373 11.4142C53.757 11.425 54.0984 11.4572 54.397 11.5106C55.7729 11.7244 56.8981 12.1781 57.7726 12.8717C58.6577 13.5653 59.308 14.4402 59.7237 15.4964C60.1393 16.5418 60.3469 17.7099 60.3465 19.0006C60.3459 20.9312 59.8653 22.5844 58.9049 23.9601C57.9444 25.3251 56.4401 26.1673 54.392 26.4866L52.472 26.6139L47.096 26.6122L47.0934 34.4202L42.7414 34.4187ZM55.7334 34.423L51.1925 25.0455L55.6728 24.183L60.6614 34.4247L55.7334 34.423ZM47.0973 22.5482L52.2813 22.5499C52.5053 22.55 52.7507 22.5394 53.0173 22.5181C53.284 22.4969 53.5294 22.4543 53.7534 22.3904C54.3401 22.2306 54.7935 21.9641 55.1137 21.5908C55.4338 21.2069 55.6526 20.7857 55.7701 20.327C55.8982 19.8578 55.9624 19.4151 55.9625 18.9991C55.9627 18.5831 55.8988 18.1458 55.771 17.687C55.6538 17.2177 55.4352 16.7963 55.1154 16.4228C54.7955 16.0387 54.3423 15.7666 53.7556 15.6064C53.5317 15.5423 53.2863 15.4996 53.0197 15.4781C52.753 15.4567 52.5077 15.446 52.2837 15.4459L47.0997 15.4442L47.0973 22.5482ZM64.5054 14.7459L64.5067 10.9059L68.8587 10.9074L68.8574 14.7474L64.5054 14.7459ZM64.4989 34.4259L64.5046 17.1459L68.8566 17.1474L68.8509 34.4274L64.4989 34.4259ZM85.4236 34.4329L85.4263 26.2729C85.4265 25.8782 85.4053 25.3769 85.3628 24.7689C85.3204 24.1502 85.1873 23.5315 84.9635 22.9128C84.7397 22.294 84.3718 21.7766 83.86 21.3604C83.3588 20.9442 82.6442 20.736 81.7162 20.7357C81.3429 20.7355 80.9428 20.7941 80.5161 20.9113C80.0894 21.0285 79.6894 21.2577 79.3159 21.5989C78.9425 21.9294 78.633 22.42 78.3874 23.0706C78.1525 23.7212 78.0349 24.5851 78.0346 25.6624L75.5389 24.4776C75.5394 23.1123 75.8172 21.8324 76.3722 20.6379C76.9273 19.4434 77.7596 18.4784 78.8692 17.7427C79.9894 17.0071 81.3976 16.6396 83.0936 16.6401C84.4482 16.6406 85.5521 16.8703 86.4053 17.3292C87.2585 17.7882 87.9196 18.3697 88.3887 19.0739C88.8685 19.7781 89.2096 20.5142 89.412 21.2822C89.6144 22.0396 89.7369 22.733 89.7793 23.3624C89.8218 23.9917 89.843 24.4504 89.8429 24.7384L89.8396 34.4344L85.4236 34.4329ZM73.6156 34.429L73.6214 17.149L77.4934 17.1503L77.4915 22.8783L78.0355 22.8784L78.0316 34.4304L73.6156 34.429ZM104.359 34.4392C103.165 34.6628 101.991 34.7584 100.839 34.726C99.698 34.7043 98.674 34.5066 97.7675 34.133C96.8716 33.7487 96.1892 33.1352 95.7201 32.2923C95.2937 31.5029 95.07 30.7028 95.0489 29.8921C95.0278 29.0708 95.0175 28.1428 95.0178 27.1081L95.0227 12.3561L99.3747 12.3575L99.3699 26.8535C99.3697 27.5255 99.3748 28.1335 99.3853 28.6776C99.4065 29.2109 99.5183 29.6376 99.7209 29.9577C100.105 30.5658 100.718 30.8967 101.561 30.9503C102.403 31.0039 103.337 30.9615 104.361 30.8232L104.359 34.4392ZM92.076 20.5151L92.0771 17.1551L104.365 17.1592L104.364 20.5192L92.076 20.5151ZM115.273 34.9228C113.503 34.9222 111.94 34.5431 110.586 33.7853C109.242 33.0168 108.186 31.9658 107.419 30.6322C106.662 29.288 106.284 27.7518 106.284 26.0238C106.285 24.1358 106.659 22.4933 107.406 21.0962C108.153 19.6991 109.183 18.6168 110.495 17.8492C111.807 17.071 113.317 16.6822 115.023 16.6828C116.837 16.6834 118.378 17.1105 119.647 17.9643C120.916 18.818 121.854 20.0184 122.462 21.5652C123.069 23.1121 123.282 24.9308 123.1 27.0214L118.796 27.02L118.796 25.42C118.797 23.66 118.515 22.3959 117.95 21.6277C117.395 20.8489 116.483 20.4592 115.214 20.4588C113.731 20.4583 112.638 20.9113 111.934 21.8177C111.24 22.7135 110.893 24.0414 110.892 25.8014C110.892 27.412 111.238 28.6602 111.931 29.5457C112.635 30.4206 113.664 30.8583 115.019 30.8588C115.872 30.859 116.603 30.6726 117.211 30.2995C117.819 29.9263 118.283 29.3878 118.603 28.6839L122.955 29.9334C122.304 31.5118 121.274 32.7382 119.866 33.6124C118.468 34.4866 116.937 34.9234 115.273 34.9228ZM109.548 27.0169L109.549 23.7849L121.005 23.7887L121.004 27.0207L109.548 27.0169ZM126.71 34.4466L126.716 17.1666L130.556 17.1679L130.554 21.3919L130.139 20.8478C130.363 20.2505 130.662 19.7066 131.035 19.2161C131.409 18.7255 131.867 18.3204 132.412 18.0005C132.828 17.7447 133.281 17.5475 133.772 17.409C134.263 17.2598 134.769 17.1693 135.292 17.1375C135.815 17.095 136.337 17.1058 136.86 17.17L136.859 21.234C136.379 21.0845 135.819 21.0363 135.179 21.0895C134.549 21.1319 133.979 21.2757 133.466 21.5209C132.954 21.7554 132.522 22.0699 132.17 22.4645C131.818 22.8483 131.551 23.3069 131.37 23.8402C131.188 24.3628 131.097 24.9548 131.097 25.6161L131.094 34.4481L126.71 34.4466ZM140.224 14.7711L140.225 10.9311L144.577 10.9326L144.576 14.7726L140.224 14.7711ZM140.218 34.4511L140.223 17.1711L144.575 17.1726L144.57 34.4526L140.218 34.4511ZM157.142 34.9368C155.404 34.9362 153.878 34.5463 152.567 33.7672C151.255 32.9881 150.231 31.9158 149.496 30.5502C148.771 29.174 148.409 27.5952 148.409 25.8139C148.41 24.0112 148.784 22.4273 149.531 21.0622C150.278 19.6865 151.308 18.6148 152.62 17.8473C153.932 17.0797 155.442 16.6962 157.148 16.6968C158.887 16.6973 160.412 17.0872 161.724 17.8663C163.046 18.6454 164.075 19.7231 164.811 21.0993C165.546 22.4649 165.914 24.0383 165.913 25.8197C165.913 27.6117 165.539 29.1956 164.792 30.5713C164.055 31.9364 163.026 33.0081 161.703 33.7863C160.39 34.5538 158.87 34.9373 157.142 34.9368ZM157.144 30.8728C158.541 30.8732 159.581 30.4042 160.264 29.4658C160.958 28.5167 161.305 27.3008 161.305 25.8181C161.306 24.2821 160.954 23.0554 160.25 22.1378C159.557 21.2202 158.523 20.7612 157.147 20.7608C156.198 20.7604 155.419 20.9735 154.811 21.4C154.203 21.8264 153.749 22.4183 153.45 23.1755C153.162 23.9328 153.018 24.8127 153.017 25.8154C153.017 27.3621 153.363 28.5942 154.056 29.5117C154.76 30.4186 155.789 30.8723 157.144 30.8728Z" fill="#E9E9E9"/>
</svg>
