<svg width="168" height="45" viewBox="0 0 168 45" fill="none" xmlns="http://www.w3.org/2000/svg">
<rect x="0.0106201" y="6.05127" width="32" height="32" rx="16" transform="rotate(0.019056 0.0106201 6.05127)" fill="#ABEF5F"/>
<path d="M21.007 17.0583L10.0033 28.0547" stroke="#1C1C1C" stroke-width="1.5" stroke-linecap="round"/>
<path d="M15.0073 16.1877C15.0073 16.1877 20.6409 15.7147 21.4957 16.5699C22.3503 17.4251 21.8734 23.0585 21.8734 23.0585" stroke="#1C1C1C" stroke-width="1.5" stroke-linecap="round" stroke-linejoin="round"/>
<path d="M42.254 34.0364L42.2616 10.9964L51.9896 10.9996C52.2136 10.9997 52.5123 11.0105 52.8856 11.0319C53.2696 11.0427 53.6109 11.0748 53.9096 11.1283C55.2855 11.3421 56.4107 11.7958 57.2851 12.4894C58.1702 13.183 58.8206 14.0579 59.2363 15.114C59.6519 16.1595 59.8595 17.3276 59.8591 18.6182C59.8584 20.5489 59.3779 22.2021 58.4174 23.5778C57.457 24.9428 55.9527 25.7849 53.9046 26.1043L51.9846 26.2316L46.6086 26.2298L46.606 34.0378L42.254 34.0364ZM55.246 34.0407L50.7051 24.6632L55.1854 23.8007L60.174 34.0423L55.246 34.0407ZM46.6099 22.1658L51.7939 22.1676C52.0179 22.1676 52.2632 22.157 52.5299 22.1358C52.7966 22.1146 53.0419 22.072 53.266 22.008C53.8527 21.8482 54.3061 21.5817 54.6262 21.2085C54.9464 20.8246 55.1652 20.4033 55.2826 19.9447C55.4108 19.4754 55.475 19.0328 55.4751 18.6168C55.4752 18.2008 55.4114 17.7634 55.2835 17.3047C55.1663 16.8353 54.9478 16.4139 54.6279 16.0405C54.3081 15.6564 53.8548 15.3842 53.2682 15.224C53.0442 15.16 52.7989 15.1172 52.5323 15.0958C52.2656 15.0744 52.0203 15.0636 51.7963 15.0636L46.6123 15.0618L46.6099 22.1658ZM64.018 14.3636L64.0193 10.5236L68.3713 10.5251L68.37 14.3651L64.018 14.3636ZM64.0115 34.0436L64.0172 16.7636L68.3692 16.7651L68.3635 34.0451L64.0115 34.0436ZM84.9362 34.0506L84.9389 25.8906C84.9391 25.4959 84.9179 24.9946 84.8754 24.3866C84.833 23.7679 84.6998 23.1492 84.476 22.5304C84.2522 21.9117 83.8844 21.3942 83.3726 20.9781C82.8714 20.5619 82.1568 20.3537 81.2288 20.3533C80.8554 20.3532 80.4554 20.4118 80.0287 20.5289C79.602 20.6461 79.2019 20.8753 78.8285 21.2166C78.455 21.5471 78.1455 22.0377 77.9 22.6882C77.6651 23.3388 77.5475 24.2028 77.5471 25.2801L75.0515 24.0953C75.052 22.73 75.3297 21.4501 75.8848 20.2556C76.4399 19.0611 77.2722 18.096 78.3818 17.3604C79.502 16.6248 80.9101 16.2572 82.6061 16.2578C83.9608 16.2583 85.0647 16.488 85.9179 16.9469C86.7711 17.4059 87.4322 17.9874 87.9013 18.6916C88.3811 19.3957 88.7222 20.1318 88.9246 20.8999C89.127 21.6573 89.2494 22.3507 89.2919 22.98C89.3343 23.6094 89.3555 24.0681 89.3554 24.3561L89.3522 34.0521L84.9362 34.0506ZM73.1282 34.0467L73.134 16.7667L77.006 16.7679L77.0041 22.4959L77.5481 22.4961L77.5442 34.0481L73.1282 34.0467ZM103.872 34.0569C102.677 34.2805 101.504 34.3761 100.352 34.3437C99.2105 34.322 98.1866 34.1243 97.2801 33.7507C96.3842 33.3664 95.7017 32.7528 95.2327 31.91C94.8063 31.1205 94.5825 30.3205 94.5615 29.5098C94.5404 28.6884 94.5301 27.7604 94.5304 26.7258L94.5353 11.9738L98.8873 11.9752L98.8825 26.4712C98.8823 27.1432 98.8874 27.7512 98.8979 28.2952C98.919 28.8286 99.0309 29.2553 99.2334 29.5753C99.6172 30.1835 100.23 30.5143 101.073 30.5679C101.916 30.6216 102.849 30.5792 103.873 30.4409L103.872 34.0569ZM91.5886 20.1328L91.5897 16.7728L103.878 16.7769L103.877 20.1369L91.5886 20.1328ZM114.786 34.5405C113.015 34.5399 111.453 34.1607 110.098 33.403C108.754 32.6345 107.699 31.5835 106.931 30.2499C106.174 28.9056 105.796 27.3695 105.797 25.6415C105.797 23.7535 106.171 22.111 106.918 20.7139C107.666 19.3168 108.695 18.2345 110.007 17.4669C111.32 16.6887 112.829 16.2999 114.536 16.3004C116.349 16.301 117.89 16.7282 119.159 17.582C120.428 18.4357 121.367 19.636 121.974 21.1829C122.582 22.7298 122.794 24.5485 122.612 26.6391L118.308 26.6377L118.309 25.0377C118.31 23.2777 118.027 22.0136 117.462 21.2454C116.908 20.4665 115.996 20.0769 114.727 20.0765C113.244 20.076 112.15 20.529 111.446 21.4354C110.753 22.3312 110.405 23.6591 110.405 25.4191C110.404 27.0297 110.751 28.2778 111.444 29.1634C112.147 30.0383 113.176 30.476 114.531 30.4764C115.384 30.4767 116.115 30.2903 116.723 29.9172C117.331 29.544 117.796 29.0055 118.116 28.3016L122.467 29.5511C121.816 31.1295 120.787 32.3558 119.378 33.23C117.981 34.1042 116.45 34.5411 114.786 34.5405ZM109.06 26.6346L109.062 23.4026L120.517 23.4064L120.516 26.6384L109.06 26.6346ZM126.223 34.0643L126.228 16.7843L130.068 16.7856L130.067 21.0096L129.651 20.4655C129.875 19.8682 130.174 19.3243 130.548 18.8338C130.921 18.3432 131.38 17.938 131.924 17.6182C132.34 17.3623 132.794 17.1652 133.284 17.0267C133.775 16.8775 134.282 16.787 134.804 16.7552C135.327 16.7127 135.85 16.7235 136.372 16.7877L136.371 20.8517C135.891 20.7022 135.331 20.654 134.691 20.7071C134.062 20.7496 133.491 20.8934 132.979 21.1386C132.467 21.3731 132.035 21.6876 131.683 22.0821C131.331 22.466 131.064 22.9246 130.882 23.4579C130.701 23.9805 130.61 24.5724 130.61 25.2338L130.607 34.0658L126.223 34.0643ZM139.737 14.3888L139.738 10.5488L144.09 10.5503L144.089 14.3903L139.737 14.3888ZM139.73 34.0688L139.736 16.7888L144.088 16.7903L144.082 34.0703L139.73 34.0688ZM156.655 34.5544C154.916 34.5539 153.391 34.164 152.079 33.3849C150.767 32.6058 149.744 31.5335 149.008 30.1679C148.283 28.7917 147.921 27.2129 147.922 25.4315C147.922 23.6289 148.296 22.045 149.043 20.6799C149.791 19.3042 150.82 18.2325 152.132 17.4649C153.445 16.6974 154.954 16.3139 156.661 16.3144C158.4 16.315 159.925 16.7049 161.236 17.484C162.559 18.2631 163.588 19.3407 164.323 20.717C165.059 22.0826 165.426 23.656 165.426 25.4374C165.425 27.2294 165.051 28.8132 164.304 30.189C163.568 31.5541 162.538 32.6257 161.215 33.404C159.903 34.1715 158.383 34.555 156.655 34.5544ZM156.656 30.4904C158.053 30.4909 159.094 30.0219 159.777 29.0835C160.47 28.1344 160.817 26.9185 160.818 25.4358C160.818 23.8998 160.467 22.673 159.763 21.7555C159.07 20.8379 158.036 20.3789 156.66 20.3784C155.71 20.3781 154.931 20.5912 154.323 21.0177C153.715 21.4441 153.262 22.036 152.963 22.7932C152.674 23.5504 152.53 24.4304 152.53 25.4331C152.529 26.9797 152.876 28.2118 153.569 29.1294C154.272 30.0363 155.301 30.49 156.656 30.4904Z" fill="#212121"/>
</svg>
