<svg width="25" height="25" viewBox="0 0 25 25" fill="none" xmlns="http://www.w3.org/2000/svg">
<path d="M8.03322 16.028L15.2964 16.0304C19.784 16.0319 20.4675 13.2129 21.2965 9.1015C21.5357 7.91561 21.6553 7.32267 21.3683 6.92751C21.0814 6.53235 20.5311 6.53216 19.4305 6.5318L6.03638 6.52734" stroke="#737373" stroke-width="1.5" stroke-linecap="round"/>
<path d="M8.03322 16.0282L5.4161 3.54225C5.19381 2.65184 4.39405 2.02698 3.47632 2.02668L2.53787 2.02637" stroke="#737373" stroke-width="1.5" stroke-linecap="round"/>
<path d="M8.91323 16.0283L8.5018 16.0282C7.13845 16.0277 6.03285 17.1786 6.03238 18.5987C6.0323 18.8354 6.21644 19.0274 6.44367 19.0275L17.5322 19.0312" stroke="#737373" stroke-width="1.5" stroke-linecap="round" stroke-linejoin="round"/>
<path d="M10.5312 22.0288C11.3597 22.0291 12.0315 21.3577 12.0317 20.5293C12.032 19.7009 11.3607 19.0291 10.5322 19.0288C9.7038 19.0285 9.032 19.6999 9.03173 20.5283C9.03145 21.3567 9.7028 22.0285 10.5312 22.0288Z" stroke="#737373" stroke-width="1.5"/>
<path d="M17.5312 22.0313C18.3597 22.0315 19.0315 21.3602 19.0317 20.5318C19.032 19.7033 18.3607 19.0315 17.5322 19.0313C16.7038 19.031 16.032 19.7023 16.0317 20.5308C16.0315 21.3592 16.7028 22.031 17.5312 22.0313Z" stroke="#737373" stroke-width="1.5"/>
</svg>
