<svg width="24" height="25" viewBox="0 0 24 25" fill="none" xmlns="http://www.w3.org/2000/svg">
<path d="M12.0063 22.4639C17.5292 22.4639 22.0063 17.9868 22.0063 12.4639C22.0063 6.94108 17.5292 2.46393 12.0063 2.46393C6.4835 2.46393 2.00635 6.94108 2.00635 12.4639C2.00635 17.9868 6.4835 22.4639 12.0063 22.4639Z" stroke="#737373" stroke-width="1.5"/>
<path d="M7.50635 17.4639C9.83805 15.0217 14.1495 14.9067 16.5063 17.4639M14.5014 9.96393C14.5014 11.3446 13.3805 12.4639 11.9978 12.4639C10.6152 12.4639 9.49432 11.3446 9.49432 9.96393C9.49432 8.58322 10.6152 7.46393 11.9978 7.46393C13.3805 7.46393 14.5014 8.58322 14.5014 9.96393Z" stroke="#737373" stroke-width="1.5" stroke-linecap="round"/>
</svg>
